<svg xmlns="http://www.w3.org/2000/svg" version="1.1" xmlns:xlink="http://www.w3.org/1999/xlink" xmlns:svgjs="http://svgjs.dev/svgjs" width="1000" height="1000" viewBox="0 0 1000 1000"><rect width="1000" height="1000" fill="#000000"></rect><g transform="matrix(0.7,0,0,0.7,149.5757575757575,459.45101661346746)"><svg viewBox="0 0 396 46" data-background-color="#ffffff" preserveAspectRatio="xMidYMid meet" height="116" width="1000" xmlns="http://www.w3.org/2000/svg" xmlns:xlink="http://www.w3.org/1999/xlink"><defs></defs><g id="tight-bounds" transform="matrix(1,0,0,1,0.24000000000003752,-0.028899375752757805)"><svg viewBox="0 0 395.5199999999999 46.05780041293875" height="46.05780041293875" width="395.5199999999999"><g><svg viewBox="0 0 395.5199999999999 46.05780041293875" height="46.05780041293875" width="395.5199999999999"><g><svg viewBox="0 0 395.5199999999999 46.05780041293875" height="46.05780041293875" width="395.5199999999999"><g><svg viewBox="0 0 395.5199999999999 46.05780041293875" height="46.05780041293875" width="395.5199999999999"><g><svg viewBox="0 0 395.5199999999999 46.05780041293875" height="46.05780041293875" width="395.5199999999999"><g transform="matrix(1,0,0,1,0,0)"><svg width="395.5199999999999" viewBox="3.549999952316284 -36.849998474121094 362.82000732421875 42.29999923706055" height="46.05780041293875" data-palette-color="#000000"><g class="undefined-text-0" data-fill-palette-color="primary" id="text-0"><path d="M15.2 0L5.45 0Q4.6 0 4.08-0.43 3.55-0.85 3.55-1.45L3.55-1.45 3.55-35.05Q3.55-35.8 4.15-36.18 4.75-36.55 5.45-36.55L5.45-36.55 14.05-36.55Q16.8-36.55 19.13-35.88 21.45-35.2 22.83-33.35 24.2-31.5 24.2-28L24.2-28Q24.2-24.85 23.05-22.75 21.9-20.65 19.95-19.8L19.95-19.8Q21.5-19.2 22.65-18.18 23.8-17.15 24.45-15.53 25.1-13.9 25.1-11.3L25.1-11.3 25.1-10.4Q25.1-6.55 23.8-4.28 22.5-2 20.25-1 18 0 15.2 0L15.2 0ZM7.75-18.05L7.75-3.8 14.5-3.8Q17.55-3.8 19.23-5.45 20.9-7.1 20.9-10.65L20.9-10.65 20.9-11.5Q20.9-15.1 19.23-16.57 17.55-18.05 14.5-18.05L14.5-18.05 7.75-18.05ZM7.75-32.75L7.75-21.55 14-21.55Q17.1-21.55 18.55-22.93 20-24.3 20-27.4L20-27.4Q20-29.45 19.23-30.63 18.45-31.8 17.07-32.27 15.7-32.75 13.85-32.75L13.85-32.75 7.75-32.75ZM41.2 0.3L41.2 0.3Q38.15 0.3 35.72-0.78 33.3-1.85 31.87-4.23 30.45-6.6 30.45-10.6L30.45-10.6 30.45-25.65Q30.45-29.65 31.87-32.02 33.3-34.4 35.72-35.48 38.15-36.55 41.2-36.55L41.2-36.55Q44.25-36.55 46.7-35.48 49.15-34.4 50.57-32.02 52-29.65 52-25.65L52-25.65 52-10.6Q52-6.6 50.57-4.23 49.15-1.85 46.7-0.78 44.25 0.3 41.2 0.3ZM41.2-3.5L41.2-3.5Q44.3-3.5 46.05-5.23 47.8-6.95 47.8-10.6L47.8-10.6 47.8-25.65Q47.8-29.3 46.05-31.03 44.3-32.75 41.2-32.75L41.2-32.75Q38.1-32.75 36.37-31.03 34.65-29.3 34.65-25.65L34.65-25.65 34.65-10.6Q34.65-6.95 36.37-5.23 38.1-3.5 41.2-3.5ZM69.15 0.3L69.15 0.3Q66.1 0.3 63.67-0.78 61.25-1.85 59.82-4.23 58.4-6.6 58.4-10.6L58.4-10.6 58.4-25.65Q58.4-29.65 59.82-32.02 61.25-34.4 63.67-35.48 66.1-36.55 69.15-36.55L69.15-36.55Q72.2-36.55 74.65-35.48 77.1-34.4 78.52-32.02 79.95-29.65 79.95-25.65L79.95-25.65 79.95-10.6Q79.95-6.6 78.52-4.23 77.1-1.85 74.65-0.78 72.2 0.3 69.15 0.3ZM69.15-3.5L69.15-3.5Q72.25-3.5 74-5.23 75.75-6.95 75.75-10.6L75.75-10.6 75.75-25.65Q75.75-29.3 74-31.03 72.25-32.75 69.15-32.75L69.15-32.75Q66.05-32.75 64.32-31.03 62.6-29.3 62.6-25.65L62.6-25.65 62.6-10.6Q62.6-6.95 64.32-5.23 66.05-3.5 69.15-3.5ZM88.79 0L88.79 0Q88.04 0 87.37-0.38 86.69-0.75 86.69-1.5L86.69-1.5 86.69-35.1Q86.69-35.85 87.37-36.2 88.04-36.55 88.79-36.55L88.79-36.55Q89.59-36.55 90.24-36.2 90.89-35.85 90.89-35.1L90.89-35.1 90.89-18.55 104.34-35.95Q104.79-36.55 105.59-36.55L105.59-36.55Q106.14-36.55 106.69-36.23 107.24-35.9 107.59-35.43 107.94-34.95 107.94-34.4L107.94-34.4Q107.94-34.2 107.89-33.95 107.84-33.7 107.64-33.5L107.64-33.5 97.44-20.75 109.29-2.75Q109.54-2.4 109.54-2L109.54-2Q109.54-1.45 109.19-0.98 108.84-0.5 108.29-0.2 107.74 0.1 107.09 0.1L107.09 0.1Q106.69 0.1 106.29-0.1 105.89-0.3 105.59-0.75L105.59-0.75 94.64-17.2 90.89-12.55 90.89-1.5Q90.89-0.75 90.24-0.38 89.59 0 88.79 0ZM121.94 0L121.94 0Q121.14 0 120.49-0.38 119.84-0.75 119.84-1.5L119.84-1.5 119.84-32.65 111.74-32.65Q111.09-32.65 110.69-33.25 110.29-33.85 110.29-34.65L110.29-34.65Q110.29-35.35 110.64-35.95 110.99-36.55 111.74-36.55L111.74-36.55 132.14-36.55Q132.89-36.55 133.24-35.95 133.59-35.35 133.59-34.65L133.59-34.65Q133.59-33.9 133.24-33.27 132.89-32.65 132.14-32.65L132.14-32.65 124.04-32.65 124.04-1.5Q124.04-0.75 123.39-0.38 122.74 0 121.94 0ZM139.84 0L139.84 0Q139.09 0 138.41-0.38 137.74-0.75 137.74-1.5L137.74-1.5 137.74-35.1Q137.74-35.85 138.41-36.2 139.09-36.55 139.84-36.55L139.84-36.55Q140.64-36.55 141.29-36.2 141.94-35.85 141.94-35.1L141.94-35.1 141.94-1.5Q141.94-0.75 141.29-0.38 140.64 0 139.84 0ZM159.53 5.45L159.53 5.45Q158.94 5.45 158.48 5.08 158.03 4.7 158.03 3.95L158.03 3.95 158.03 0.2Q155.34 0 153.23-1.15 151.13-2.3 149.94-4.63 148.73-6.95 148.73-10.6L148.73-10.6 148.73-25.65Q148.73-29.65 150.16-32.02 151.59-34.4 154.01-35.48 156.44-36.55 159.48-36.55L159.48-36.55Q162.53-36.55 164.99-35.48 167.44-34.4 168.86-32.02 170.28-29.65 170.28-25.65L170.28-25.65 170.28-10.6Q170.28-6.95 169.09-4.63 167.88-2.3 165.78-1.15 163.69 0 161.03 0.2L161.03 0.2 161.03 3.95Q161.03 4.7 160.56 5.08 160.09 5.45 159.53 5.45ZM158.03-3.7L158.03-3.7 158.03-7.1Q158.03-7.85 158.48-8.2 158.94-8.55 159.53-8.55L159.53-8.55Q160.09-8.55 160.56-8.2 161.03-7.85 161.03-7.1L161.03-7.1 161.03-3.75Q163.38-4.1 164.74-5.78 166.09-7.45 166.09-10.6L166.09-10.6 166.09-25.65Q166.09-29.3 164.34-31.03 162.59-32.75 159.48-32.75L159.48-32.75Q156.38-32.75 154.66-31.03 152.94-29.3 152.94-25.65L152.94-25.65 152.94-10.6Q152.94-7.45 154.26-5.75 155.59-4.05 158.03-3.7ZM187.78 0.3L187.78 0.3Q184.68 0.3 182.23-0.78 179.78-1.85 178.33-4.23 176.88-6.6 176.88-10.6L176.88-10.6 176.88-35.1Q176.88-35.85 177.51-36.2 178.13-36.55 178.98-36.55L178.98-36.55Q179.78-36.55 180.43-36.2 181.08-35.85 181.08-35.1L181.08-35.1 181.08-10.6Q181.08-6.95 182.83-5.23 184.58-3.5 187.78-3.5L187.78-3.5Q190.93-3.5 192.71-5.23 194.48-6.95 194.48-10.6L194.48-10.6 194.48-35.1Q194.48-35.85 195.13-36.2 195.78-36.55 196.58-36.55L196.58-36.55Q197.38-36.55 198.03-36.2 198.68-35.85 198.68-35.1L198.68-35.1 198.68-10.6Q198.68-6.6 197.23-4.23 195.78-1.85 193.31-0.78 190.83 0.3 187.78 0.3ZM225.33 0L207.53 0Q206.83 0 206.23-0.38 205.63-0.75 205.63-1.5L205.63-1.5 205.63-35.05Q205.63-35.8 206.23-36.18 206.83-36.55 207.53-36.55L207.53-36.55 225.33-36.55Q226.13-36.55 226.46-35.95 226.78-35.35 226.78-34.7L226.78-34.7Q226.78-33.95 226.41-33.35 226.03-32.75 225.33-32.75L225.33-32.75 209.83-32.75 209.83-20.05 217.63-20.05Q218.33-20.05 218.71-19.5 219.08-18.95 219.08-18.25L219.08-18.25Q219.08-17.65 218.76-17.1 218.43-16.55 217.63-16.55L217.63-16.55 209.83-16.55 209.83-3.8 225.33-3.8Q226.03-3.8 226.41-3.23 226.78-2.65 226.78-1.85L226.78-1.85Q226.78-1.2 226.46-0.6 226.13 0 225.33 0L225.33 0Z" fill="#ffffff" data-fill-palette-color="primary"></path><path d="M240.73 0.3L240.73 0.3Q237.68 0.3 235.25-0.78 232.83-1.85 231.41-4.25 229.98-6.65 229.98-10.6L229.98-10.6 229.98-25.65Q229.98-29.6 231.41-32 232.83-34.4 235.25-35.48 237.68-36.55 240.63-36.55L240.63-36.55Q243.93-36.55 246.36-35.43 248.78-34.3 250.16-32.3 251.53-30.3 251.53-27.6L251.53-27.6Q251.53-26.4 250.98-25.98 250.43-25.55 249.43-25.55L249.43-25.55Q248.58-25.55 247.98-25.88 247.38-26.2 247.33-27L247.33-27Q247.13-28.75 246.43-30.03 245.73-31.3 244.33-32.02 242.93-32.75 240.73-32.75L240.73-32.75Q237.63-32.75 235.91-31.03 234.18-29.3 234.18-25.65L234.18-25.65 234.18-10.6Q234.18-6.95 235.91-5.23 237.63-3.5 240.73-3.5L240.73-3.5Q243.83-3.5 245.58-5.23 247.33-6.95 247.33-10.6L247.33-10.6 247.33-15.7 241.38-15.7Q240.68-15.7 240.31-16.25 239.93-16.8 239.93-17.45L239.93-17.45Q239.93-18.1 240.31-18.65 240.68-19.2 241.38-19.2L241.38-19.2 250.08-19.2Q250.78-19.2 251.16-18.75 251.53-18.3 251.53-17.65L251.53-17.65 251.53-10.6Q251.53-6.65 250.11-4.25 248.68-1.85 246.23-0.78 243.78 0.3 240.73 0.3ZM259.83 0L259.83 0Q259.08 0 258.4-0.38 257.73-0.75 257.73-1.5L257.73-1.5 257.73-35.1Q257.73-35.85 258.4-36.2 259.08-36.55 259.83-36.55L259.83-36.55Q260.63-36.55 261.28-36.2 261.93-35.85 261.93-35.1L261.93-35.1 261.93-20.7 275.48-20.7 275.48-35.1Q275.48-35.85 276.15-36.2 276.83-36.55 277.58-36.55L277.58-36.55Q278.38-36.55 279.03-36.2 279.68-35.85 279.68-35.1L279.68-35.1 279.68-1.5Q279.68-0.75 279.03-0.38 278.38 0 277.58 0L277.58 0Q276.83 0 276.15-0.38 275.48-0.75 275.48-1.5L275.48-1.5 275.48-17.2 261.93-17.2 261.93-1.5Q261.93-0.75 261.28-0.38 260.63 0 259.83 0ZM286.63 0L286.63 0Q286.13 0 285.5-0.23 284.88-0.45 284.5-0.85 284.13-1.25 284.13-1.75L284.13-1.75Q284.13-1.95 284.18-2.15L284.18-2.15 294.43-35.4Q294.62-36.15 295.37-36.5 296.12-36.85 296.98-36.85L296.98-36.85Q297.87-36.85 298.62-36.48 299.37-36.1 299.58-35.4L299.58-35.4 309.78-2.15Q309.87-1.95 309.87-1.8L309.87-1.8Q309.87-1.3 309.45-0.9 309.03-0.5 308.43-0.25 307.83 0 307.28 0L307.28 0Q306.73 0 306.33-0.23 305.93-0.45 305.78-0.95L305.78-0.95 303.53-8.4 290.38-8.4 288.23-0.95Q288.08-0.45 287.65-0.23 287.23 0 286.63 0ZM296.98-30.65L291.37-11.85 302.58-11.85 296.98-30.65ZM316.32 0L316.32 0Q315.57 0 314.9-0.38 314.22-0.75 314.22-1.5L314.22-1.5 314.22-35.1Q314.22-35.9 314.9-36.23 315.57-36.55 316.32-36.55L316.32-36.55Q317.12-36.55 317.67-36.25 318.22-35.95 318.67-35.38 319.12-34.8 319.57-33.9L319.57-33.9 331.97-9.55 331.97-35.1Q331.97-35.85 332.65-36.2 333.32-36.55 334.07-36.55L334.07-36.55Q334.87-36.55 335.52-36.2 336.17-35.85 336.17-35.1L336.17-35.1 336.17-1.5Q336.17-0.75 335.52-0.38 334.87 0 334.07 0L334.07 0Q333.27 0 332.6-0.55 331.92-1.1 331.47-1.9L331.47-1.9 318.42-27.05 318.42-1.5Q318.42-0.75 317.77-0.38 317.12 0 316.32 0ZM343.12 0L343.12 0Q342.62 0 342-0.23 341.37-0.45 341-0.85 340.62-1.25 340.62-1.75L340.62-1.75Q340.62-1.95 340.67-2.15L340.67-2.15 350.92-35.4Q351.12-36.15 351.87-36.5 352.62-36.85 353.47-36.85L353.47-36.85Q354.37-36.85 355.12-36.48 355.87-36.1 356.07-35.4L356.07-35.4 366.27-2.15Q366.37-1.95 366.37-1.8L366.37-1.8Q366.37-1.3 365.95-0.9 365.52-0.5 364.92-0.25 364.32 0 363.77 0L363.77 0Q363.22 0 362.82-0.23 362.42-0.45 362.27-0.95L362.27-0.95 360.02-8.4 346.87-8.4 344.72-0.95Q344.57-0.45 344.15-0.23 343.72 0 343.12 0ZM353.47-30.65L347.87-11.85 359.07-11.85 353.47-30.65Z" fill="#ffffff" data-fill-palette-color="secondary"></path></g></svg></g></svg></g></svg></g></svg></g></svg></g></svg><rect width="395.5199999999999" height="46.05780041293875" fill="none" stroke="none" visibility="hidden"></rect></g></svg></g></svg>